#!OML:ASF F:\VICON\USERDATA\INSTALL\rory3\rory3.ASF
:FULLY-SPECIFIED
:DEGREES
795
root -0.255126 17.7055 2.84274 5.07202 5.38326 -2.54623
lowerback 8.06026 2.95706 1.93992
upperback 0.296227 3.96128 -3.75467
thorax -3.80812 1.90691 -5.44216
lowerneck -29.1639 -12.1115 -12.1583
upperneck 3.93544 -13.4727 13.9525
head 7.5343 -5.40426 4.54234
rclavicle 5.02925e-014 -2.38542e-014
rhumerus 54.3954 -18.0185 -29.0576
rradius 49.6817
rwrist 48.095
rhand -68.1896 -8.68405
rfingers 7.12502
rthumb -39.9076 -33.9379
lclavicle 5.02925e-014 -2.38542e-014
lhumerus -40.0779 9.39081 64.5275
lradius 54.1464
lwrist -4.16189
lhand -22.6373 23.8088
lfingers 7.12502
lthumb 3.79333 53.7547
rfemur -12.9306 -3.58558 15.5101
rtibia 29.3508
rfoot -18.5567 -7.18218
rtoes -2.19167
lfemur -15.6848 -2.46916 -10.065
ltibia 29.1117
lfoot -14.8468 0.677542
ltoes -22.1825
796
root -0.267715 17.7045 2.83676 5.10297 5.19695 -2.45066
lowerback 8.1541 2.92663 1.91714
upperback 0.315428 3.92286 -3.64675
thorax -3.85374 1.88772 -5.31742
lowerneck -29.2965 -12.0362 -12.1042
upperneck 4.00374 -13.3706 13.8753
head 7.55203 -5.35553 4.52422
rclavicle -5.20816e-014 2.22639e-014
rhumerus 54.2732 -18.8956 -29.6371
rradius 49.2303
rwrist 47.5327
rhand -67.7609 -7.06917
rfingers 7.12502
rthumb -39.504 -32.4429
lclavicle -5.20816e-014 2.22639e-014
lhumerus -39.8925 9.14732 64.7851
lradius 54.1304
lwrist -4.16414
lhand -22.558 24.1557
lfingers 7.12502
lthumb 3.86996 54.1003
rfemur -13.0822 -3.58675 15.4243
rtibia 29.4808
rfoot -18.5117 -6.96694
rtoes -2.21397
lfemur -15.6331 -2.52864 -10.1356
ltibia 29.0198
lfoot -14.7786 0.895412
ltoes -22.1971
797
root -0.280013 17.707 2.83127 5.1866 4.98816 -2.43728
lowerback 8.11802 2.8728 1.98783
upperback 0.344697 3.86257 -3.52817
thorax -3.81276 1.8586 -5.22251
lowerneck -29.4663 -11.9214 -12.0162
upperneck 4.08461 -13.2265 13.8081
head 7.57337 -5.28383 4.5114
rclavicle 5.78463e-014 -6.04305e-014
rhumerus 54.4974 -19.761 -30.743
rradius 48.63
rwrist 47.4337
rhand -67.651 -7.35362
rfingers 7.12502
rthumb -39.4005 -32.7577
lclavicle 5.78463e-014 -6.04305e-014
lhumerus -39.6965 9.08844 64.9706
lradius 54.1312
lwrist -4.18638
lhand -22.559 24.3151
lfingers 7.12502
lthumb 3.869 54.2598
rfemur -13.3128 -3.47139 15.4335
rtibia 29.6391
rfoot -18.497 -6.81809
rtoes -1.8651
lfemur -15.6313 -2.5998 -10.1093
ltibia 28.927
lfoot -14.7143 1.15813
ltoes -22.1792
798
root -0.291474 17.7072 2.82493 5.27385 4.77694 -2.31506
lowerback 8.1273 2.80525 2.07273
upperback 0.316421 3.77923 -3.54898
thorax -3.84908 1.81419 -5.286
lowerneck -29.3235 -11.7843 -11.9076
upperneck 4.01453 -13.1161 13.941
head 7.52458 -5.22619 4.56368
rclavicle 3.26007e-014 1.59028e-015
rhumerus 54.6339 -20.4801 -32.0509
rradius 48.1129
rwrist 47.3753
rhand -67.614 -8.6763
rfingers 7.12502
rthumb -39.3657 -34.0906
lclavicle 3.26007e-014 1.59028e-015
lhumerus -39.5685 8.88232 64.9699
lradius 54.143
lwrist -4.19366
lhand -22.6148 24.1519
lfingers 7.12502
lthumb 3.8151 54.0975
rfemur -13.5631 -3.46608 15.3151
rtibia 29.8354
rfoot -18.4232 -6.6178
rtoes -1.66138
lfemur -15.6226 -2.61767 -10.2203
ltibia 28.8219
lfoot -14.6429 1.3724
ltoes -22.0578
799
root -0.302517 17.705 2.81781 5.36081 4.55566 -2.20958
lowerback 8.25647 2.71818 2.28023
upperback 0.230241 3.67917 -3.62107
thorax -4.00404 1.75473 -5.48206
lowerneck -29.2606 -11.661 -11.8198
upperneck 4.06163 -13.0293 14.1324
head 7.53642 -5.16874 4.63178
rclavicle -3.65764e-014 4.77083e-015
rhumerus 54.6709 -21.1155 -33.3094
rradius 47.6885
rwrist 46.9828
rhand -67.4689 -9.0187
rfingers 7.12502
rthumb -39.2289 -34.4728
lclavicle -3.65764e-014 4.77083e-015
lhumerus -39.4738 8.59561 64.8909
lradius 54.1715
lwrist -4.19824
lhand -22.691 24.1578
lfingers 7.12502
lthumb 3.74147 54.1047
rfemur -13.808 -3.40348 15.1853
rtibia 30.0343
rfoot -18.4769 -6.23874
rtoes 0.278372
lfemur -15.6331 -2.48549 -10.3256
ltibia 28.7297
lfoot -14.5688 1.52739
ltoes -22.4889
800
root -0.315986 17.7025 2.81123 5.4222 4.34073 -2.09041
lowerback 8.37604 2.66024 2.34535
upperback 0.177843 3.60882 -3.60065
thorax -4.13077 1.71418 -5.50051
lowerneck -29.4499 -11.5811 -11.6898
upperneck 4.34632 -12.9798 14.1149
head 7.644 -5.13066 4.60969
rclavicle -6.32135e-014 2.3059e-014
rhumerus 54.6727 -21.7258 -34.2555
rradius 47.285
rwrist 46.3995
rhand -67.4072 -10.3405
rfingers 7.12502
rthumb -39.1707 -35.8115
lclavicle -6.32135e-014 2.3059e-014
lhumerus -39.2795 8.45459 64.9405
lradius 54.1211
lwrist -4.48812
lhand -22.6429 24.3449
lfingers 7.12502
lthumb 3.78797 54.291
rfemur -14.0212 -3.23007 15.0412
rtibia 30.2568
rfoot -18.6197 -5.82654
rtoes 3.21657
lfemur -15.6147 -2.41427 -10.4194
ltibia 28.6308
lfoot -14.4779 1.67564
ltoes -22.5255
